<svg width="24" height="24" viewBox="0 0 24 24" fill="none" xmlns="http://www.w3.org/2000/svg">
<path d="M21.5286 10.3018C22.5506 11.8807 23.1447 13.7525 23.1448 15.7598V16.2773H23.4329C23.7479 16.2774 24 16.5257 24.0002 16.8359V18.334C24.0001 19.8867 22.718 21.1426 21.1487 21.1426H4.44067C4.00446 21.1426 3.59231 21.0427 3.2229 20.8701L4.69946 20.0176H21.1477C22.0934 20.0176 22.8575 19.2655 22.8577 18.334L22.8567 18.335V17.3965H9.24146L11.1799 16.2773H22.0022V15.7598C22.0021 13.9595 21.4662 12.2817 20.5461 10.8691L21.5286 10.3018ZM12.7903 3C13.1193 3 14.8705 3.00786 15.2698 4.02832C15.5289 4.67754 15.3895 5.30601 15.1018 5.82324C16.6493 6.17364 18.0648 6.86539 19.2629 7.8125L18.2073 8.42188C16.6844 7.32692 14.8095 6.67871 12.7825 6.67871C7.69729 6.6789 3.56396 10.7497 3.56372 15.7598V16.2773H4.60278L1.58911 18.0166V16.8359C1.58936 16.5256 1.84143 16.2774 2.15649 16.2773H2.42212V15.7598C2.42233 10.9224 5.86165 6.86559 10.4573 5.82324C10.1696 5.31279 10.0371 4.67657 10.2893 4.02832C10.6963 3.00026 12.4469 3 12.7903 3ZM12.7961 4.12598C12.1027 4.09113 11.4305 4.28516 11.3606 4.43652H11.3518C11.163 4.92645 11.4867 5.38143 11.7034 5.61621C12.0608 5.58131 12.4172 5.56056 12.7815 5.56055C13.146 5.56055 13.503 5.58128 13.8606 5.61621C14.0783 5.38138 14.4001 4.92646 14.2112 4.43652C14.1412 4.29193 13.4621 4.1056 12.7961 4.12598Z" fill="black"/>
<path d="M22.2556 7.29932L22.8487 8.32661L0.593335 21.1758L0.00022407 20.1485L22.2556 7.29932Z" fill="black"/>
</svg>
